<svg xmlns="http://www.w3.org/2000/svg" xmlns:xlink="http://www.w3.org/1999/xlink" 
width="30" height="30" viewBox="0 0 50 50">
  <defs>
    <style>
      .cls-1 {
        clip-path: url(#clip-Settings);
      }

      .cls-2 {
        fill: "currentColor";
        stroke: #fff;
        stroke-width: 0.8px;
      }
    </style>
    <clipPath id="clip-Settings">
      <rect width="50" height="50"/>
    </clipPath>
  </defs>
  <g id="Settings" class="cls-1">
    <g id="gear_1_" data-name="gear (1)" transform="translate(5.686 5.686)">
      <g id="Group_5651" data-name="Group 5651" transform="translate(0 0)">
        <g id="Group_5650" data-name="Group 5650">
          <path id="Path_12448" data-name="Path 12448" class="cls-2" d="M36.109,15.116H32.965a14.212,14.212,0,0,0-1.028-2.484l2.221-2.221a2.523,2.523,0,0,0,0-3.565L31.782,4.469a2.583,2.583,0,0,0-3.564,0L26,6.69a14.25,14.25,0,0,0-2.484-1.028V2.519A2.522,2.522,0,0,0,20.994,0H17.635a2.522,2.522,0,0,0-2.519,2.519V5.663a14.277,14.277,0,0,0-2.484,1.028L10.41,4.47a2.523,2.523,0,0,0-3.564,0L4.468,6.846a2.525,2.525,0,0,0,0,3.564l2.221,2.222a14.25,14.25,0,0,0-1.028,2.484H2.519A2.522,2.522,0,0,0,0,17.636v3.359a2.522,2.522,0,0,0,2.519,2.518H5.663A14.277,14.277,0,0,0,6.691,26L4.47,28.219a2.523,2.523,0,0,0,0,3.564L6.847,34.16a2.525,2.525,0,0,0,3.564,0l2.222-2.221a14.25,14.25,0,0,0,2.484,1.028v3.142a2.522,2.522,0,0,0,2.519,2.519h3.359a2.522,2.522,0,0,0,2.519-2.519V32.965A14.25,14.25,0,0,0,26,31.937l2.221,2.222a2.583,2.583,0,0,0,3.564,0l2.377-2.377a2.522,2.522,0,0,0,0-3.564L31.938,26a14.25,14.25,0,0,0,1.028-2.484h3.143a2.522,2.522,0,0,0,2.519-2.519V17.635A2.522,2.522,0,0,0,36.109,15.116Zm.84,5.878a.841.841,0,0,1-.84.84H32.33a.84.84,0,0,0-.813.63,12.622,12.622,0,0,1-1.347,3.252.841.841,0,0,0,.129,1.02l2.67,2.671a.843.843,0,0,1,0,1.189l-2.377,2.376a.865.865,0,0,1-1.189,0l-2.67-2.67a.841.841,0,0,0-1.021-.129,12.578,12.578,0,0,1-3.251,1.346.838.838,0,0,0-.629.812v3.779a.841.841,0,0,1-.84.84H17.635a.841.841,0,0,1-.84-.84V32.33a.84.84,0,0,0-.63-.813,12.591,12.591,0,0,1-3.252-1.346.831.831,0,0,0-.427-.117.839.839,0,0,0-.595.246l-2.67,2.67a.842.842,0,0,1-1.189,0L5.657,30.595a.841.841,0,0,1,0-1.189l2.67-2.67a.839.839,0,0,0,.129-1.02A12.608,12.608,0,0,1,7.11,22.463a.838.838,0,0,0-.812-.63H2.519a.841.841,0,0,1-.84-.84V17.635a.841.841,0,0,1,.84-.84H6.3a.84.84,0,0,0,.813-.63,12.591,12.591,0,0,1,1.346-3.252.838.838,0,0,0-.129-1.02l-2.67-2.67a.842.842,0,0,1,0-1.189L8.034,5.657a.842.842,0,0,1,1.189,0l2.67,2.67a.837.837,0,0,0,1.02.129,12.608,12.608,0,0,1,3.252-1.346A.84.84,0,0,0,16.8,6.3V2.519a.841.841,0,0,1,.84-.84h3.359a.841.841,0,0,1,.84.84V6.3a.84.84,0,0,0,.63.813,12.578,12.578,0,0,1,3.251,1.346.838.838,0,0,0,1.021-.129l2.67-2.67a.862.862,0,0,1,1.189,0l2.377,2.376a.843.843,0,0,1,0,1.189l-2.67,2.67a.84.84,0,0,0-.129,1.02,12.61,12.61,0,0,1,1.347,3.252.838.838,0,0,0,.812.63h3.779a.841.841,0,0,1,.84.84Z" transform="translate(0 0)"/>
        </g>
      </g>
      <g id="Group_5653" data-name="Group 5653" transform="translate(11.757 11.757)">
        <g id="Group_5652" data-name="Group 5652">
          <path id="Path_12449" data-name="Path 12449" class="cls-2" d="M119.558,112a7.558,7.558,0,1,0,7.558,7.558A7.567,7.567,0,0,0,119.558,112Zm0,13.436a5.878,5.878,0,1,1,5.878-5.878A5.885,5.885,0,0,1,119.558,125.436Z" transform="translate(-112 -112)"/>
        </g>
      </g>
    </g>
  </g>
</svg>
